<?xml version="1.0" encoding="UTF-8" standalone="no"?>
<!-- Created with Inkscape (http://www.inkscape.org/) -->

<svg
   xmlns:dc="http://purl.org/dc/elements/1.1/"
   xmlns:cc="http://creativecommons.org/ns#"
   xmlns:rdf="http://www.w3.org/1999/02/22-rdf-syntax-ns#"
   xmlns:svg="http://www.w3.org/2000/svg"
   xmlns="http://www.w3.org/2000/svg"
   xmlns:sodipodi="http://sodipodi.sourceforge.net/DTD/sodipodi-0.dtd"
   xmlns:inkscape="http://www.inkscape.org/namespaces/inkscape"
   width="19.507496mm"
   height="9.4094973mm"
   viewBox="0 0 69.121048 33.340738"
   id="svg2"
   version="1.1"
   inkscape:version="0.91 r13725"
   sodipodi:docname="logo.svg">
  <defs
     id="defs4" />
  <sodipodi:namedview
     id="base"
     pagecolor="#ffffff"
     bordercolor="#666666"
     borderopacity="1.0"
     inkscape:pageopacity="0.0"
     inkscape:pageshadow="2"
     inkscape:zoom="5.6568543"
     inkscape:cx="95.166995"
     inkscape:cy="26.703632"
     inkscape:document-units="px"
     inkscape:current-layer="layer1"
     showgrid="false"
     inkscape:window-width="2221"
     inkscape:window-height="1235"
     inkscape:window-x="44"
     inkscape:window-y="21"
     inkscape:window-maximized="0"
     fit-margin-top="0"
     fit-margin-left="0"
     fit-margin-right="0"
     fit-margin-bottom="0" />
  <metadata
     id="metadata7">
    <rdf:RDF>
      <cc:Work
         rdf:about="">
        <dc:format>image/svg+xml</dc:format>
        <dc:type
           rdf:resource="http://purl.org/dc/dcmitype/StillImage" />
        <dc:title></dc:title>
      </cc:Work>
    </rdf:RDF>
  </metadata>
  <g
     inkscape:label="Layer 1"
     inkscape:groupmode="layer"
     id="layer1"
     transform="translate(-209.82988,-168.21325)">
    <g
       style="font-style:normal;font-weight:normal;font-size:40px;line-height:125%;font-family:sans-serif;letter-spacing:0px;word-spacing:0px;fill:#000000;fill-opacity:1;stroke:none;stroke-width:1px;stroke-linecap:butt;stroke-linejoin:miter;stroke-opacity:1"
       id="text4136">
      <path
         d="m 227.66182,171.59213 q 0,0.54688 -0.0977,0.91797 -0.0781,0.3711 -0.29297,0.60547 -0.21484,0.21484 -0.60546,0.3125 -0.3711,0.0977 -0.95704,0.0977 -0.5664,0 -0.95703,-0.0977 -0.37109,-0.0977 -0.60547,-0.3125 -0.21484,-0.23437 -0.3125,-0.60547 -0.0976,-0.37109 -0.0976,-0.91797 0,-0.54687 0.0976,-0.89843 0.0977,-0.3711 0.3125,-0.60547 0.23438,-0.25391 0.60547,-0.33203 0.39063,-0.0977 0.95703,-0.0977 0.58594,0 0.95704,0.0977 0.39062,0.0781 0.60546,0.33203 0.21485,0.23437 0.29297,0.60547 0.0977,0.35156 0.0977,0.89843 z m -0.35156,23.4961 q 0,0.15625 -0.0781,0.27343 -0.0781,0.0977 -0.27344,0.17579 -0.17578,0.0781 -0.48828,0.11718 -0.3125,0.0391 -0.78125,0.0391 -0.46875,0 -0.78125,-0.0391 -0.3125,-0.0391 -0.50781,-0.11718 -0.17578,-0.0781 -0.25391,-0.17579 -0.0781,-0.11718 -0.0781,-0.27343 l 0,-15.41016 -7.89063,0 0,15.41016 q 0,0.15625 -0.0781,0.27343 -0.0781,0.0977 -0.27344,0.17579 -0.17578,0.0781 -0.48828,0.11718 -0.3125,0.0391 -0.78125,0.0391 -0.46875,0 -0.78125,-0.0391 -0.3125,-0.0391 -0.50781,-0.11718 -0.17578,-0.0781 -0.25391,-0.17579 -0.0781,-0.11718 -0.0781,-0.27343 l 0,-15.41016 -2.48047,0 q -0.3125,0 -0.46875,-0.3125 -0.15625,-0.3125 -0.15625,-1.01562 0,-0.3711 0.0391,-0.625 0.0391,-0.25391 0.11719,-0.41016 0.0781,-0.17578 0.19531,-0.23438 0.11719,-0.0781 0.27344,-0.0781 l 2.48047,0 0,-1.89453 q 0,-1.81641 0.35156,-3.10547 0.35156,-1.30859 1.03516,-2.14844 0.70312,-0.83984 1.71875,-1.23047 1.03515,-0.41015 2.36328,-0.41015 0.42968,0 0.85937,0.0391 0.42969,0.0391 0.78125,0.11719 0.35156,0.0781 0.60547,0.17578 0.27344,0.0781 0.37109,0.17578 0.0977,0.0977 0.15625,0.21484 0.0586,0.0977 0.0977,0.25391 0.0391,0.15625 0.0586,0.39062 0.0195,0.23438 0.0195,0.56641 0,0.625 -0.0977,0.89844 -0.0977,0.27344 -0.33203,0.27344 -0.15625,0 -0.33203,-0.0586 -0.15625,-0.0781 -0.41016,-0.15625 -0.25391,-0.0781 -0.625,-0.13672 -0.35156,-0.0781 -0.89844,-0.0781 -1.34765,0 -1.91406,0.99609 -0.56641,0.9961 -0.56641,3.1836 l 0,1.93359 10.13672,0 q 0.50782,0 0.74219,0.27344 0.25391,0.2539 0.25391,0.72265 l 0,17.08985 z"
         style="font-style:normal;font-variant:normal;font-weight:normal;font-stretch:normal;font-size:40px;line-height:125%;font-family:Calibri;-inkscape-font-specification:'Calibri, Normal';text-align:start;writing-mode:lr-tb;text-anchor:start"
         id="path4141"
         inkscape:connector-curvature="0" />
      <path
         d="m 244.47823,194.20932 q 0,0.37109 -0.0586,0.64453 -0.0586,0.25391 -0.13672,0.42969 -0.0781,0.15625 -0.21484,0.23437 -0.13672,0.0586 -0.29297,0.0586 l -10.82031,0 q -0.41016,0 -0.6836,-0.27344 -0.2539,-0.27344 -0.2539,-0.91797 l 0,-0.66406 q 0,-0.27344 0.0391,-0.48828 0.0391,-0.21485 0.11719,-0.42969 0.0781,-0.21484 0.21484,-0.44922 0.13672,-0.2539 0.33203,-0.5664 l 7.75391,-12.07032 -7.51953,0 q -0.3125,0 -0.50781,-0.3125 -0.17579,-0.33203 -0.17579,-1.05468 0,-0.35157 0.0391,-0.60547 0.0391,-0.27344 0.11718,-0.42969 0.0977,-0.17578 0.21485,-0.23438 0.13672,-0.0781 0.3125,-0.0781 l 10.07812,0 q 0.21485,0 0.3711,0.0586 0.17578,0.0586 0.29297,0.19532 0.11718,0.13671 0.17578,0.35156 0.0781,0.21484 0.0781,0.54687 l 0,0.625 q 0,0.27344 -0.0391,0.50782 -0.0391,0.23437 -0.11719,0.46875 -0.0781,0.21484 -0.21484,0.46875 -0.13672,0.2539 -0.33203,0.5664 l -7.71485,12.07031 8.24219,0 q 0.15625,0 0.27344,0.0781 0.13672,0.0586 0.21484,0.21484 0.0977,0.15625 0.15625,0.42969 0.0586,0.25391 0.0586,0.625 z"
         style="font-style:normal;font-variant:normal;font-weight:normal;font-stretch:normal;font-size:40px;line-height:125%;font-family:Calibri;-inkscape-font-specification:'Calibri, Normal';text-align:start;writing-mode:lr-tb;text-anchor:start"
         id="path4143"
         inkscape:connector-curvature="0" />
      <path
         d="m 260.25948,194.20932 q 0,0.37109 -0.0586,0.64453 -0.0586,0.25391 -0.13672,0.42969 -0.0781,0.15625 -0.21484,0.23437 -0.13672,0.0586 -0.29297,0.0586 l -10.82031,0 q -0.41016,0 -0.6836,-0.27344 -0.2539,-0.27344 -0.2539,-0.91797 l 0,-0.66406 q 0,-0.27344 0.0391,-0.48828 0.0391,-0.21485 0.11719,-0.42969 0.0781,-0.21484 0.21484,-0.44922 0.13672,-0.2539 0.33203,-0.5664 l 7.75391,-12.07032 -7.51953,0 q -0.3125,0 -0.50781,-0.3125 -0.17579,-0.33203 -0.17579,-1.05468 0,-0.35157 0.0391,-0.60547 0.0391,-0.27344 0.11718,-0.42969 0.0977,-0.17578 0.21485,-0.23438 0.13672,-0.0781 0.3125,-0.0781 l 10.07812,0 q 0.21485,0 0.3711,0.0586 0.17578,0.0586 0.29297,0.19532 0.11718,0.13671 0.17578,0.35156 0.0781,0.21484 0.0781,0.54687 l 0,0.625 q 0,0.27344 -0.0391,0.50782 -0.0391,0.23437 -0.11719,0.46875 -0.0781,0.21484 -0.21484,0.46875 -0.13672,0.2539 -0.33203,0.5664 l -7.71485,12.07031 8.24219,0 q 0.15625,0 0.27344,0.0781 0.13672,0.0586 0.21484,0.21484 0.0977,0.15625 0.15625,0.42969 0.0586,0.25391 0.0586,0.625 z"
         style="font-style:normal;font-variant:normal;font-weight:normal;font-stretch:normal;font-size:40px;line-height:125%;font-family:Calibri;-inkscape-font-specification:'Calibri, Normal';text-align:start;writing-mode:lr-tb;text-anchor:start"
         id="path4145"
         inkscape:connector-curvature="0" />
      <path
         d="m 272.5251,195.57651 -1.78156,3.67984 c -1.13642,1.07329 -3.08757,1.52231 -3.08757,1.52231 -17.99567,-0.34674 -33.59034,0.64401 -55.84097,0.77533 -0.20833,-0.0261 -0.37109,-0.0782 -0.48828,-0.15625 -0.10417,-0.0781 -0.16276,-0.18229 -0.17579,-0.3125 0.12905,-0.58004 0.295,-0.81599 0.53964,-1.03696 0.31567,-0.0868 54.83222,-1.5424 56.09491,-1.85807 0.56821,-0.88388 1.09514,-2.25824 1.18107,-2.4848 -0.0274,-0.18491 -0.0444,-0.35154 -0.13282,-0.44533 -0.0534,-0.0937 -0.21093,-0.3203 -0.21093,-0.3203 l -6.27344,-16.78516 c -0.10417,-0.27343 -0.15625,-0.48828 -0.15625,-0.64453 0,-0.15625 0.0521,-0.27994 0.15625,-0.37109 0.10417,-0.0911 0.27344,-0.14974 0.50781,-0.17578 0.23437,-0.0391 0.54687,-0.0586 0.9375,-0.0586 0.39063,0 0.69662,0.013 0.91797,0.0391 0.22135,0.013 0.39713,0.0455 0.52734,0.0976 0.13021,0.0521 0.22136,0.13019 0.27344,0.23438 0.0651,0.0911 0.13024,0.22135 0.19531,0.39062 l 5.01954,14.10156 0.0586,0 4.84375,-14.17968 c 0.0781,-0.2474 0.16927,-0.40365 0.27344,-0.46875 0.11719,-0.0781 0.28646,-0.13021 0.50781,-0.15625 0.22135,-0.0391 0.54036,-0.0586 0.95703,-0.0586 0.36459,0 0.66407,0.0195 0.89844,0.0586 0.23437,0.0261 0.40364,0.0847 0.50781,0.17578 0.11719,0.0911 0.17578,0.21484 0.17578,0.37109 0,0.15625 -0.0391,0.35157 -0.11719,0.58594 l -6.30859,17.48047 z"
         style="font-style:normal;font-variant:normal;font-weight:normal;font-stretch:normal;font-size:40px;line-height:125%;font-family:Calibri;-inkscape-font-specification:'Calibri, Normal';text-align:start;writing-mode:lr-tb;text-anchor:start;fill:#5fbcd3"
         id="path4147"
         inkscape:connector-curvature="0"
         sodipodi:nodetypes="ccccccccccccsscscccccccccsccsccc" />
    </g>
  </g>
</svg>
